<svg width="25" height="24" viewBox="0 0 25 24" fill="none" xmlns="http://www.w3.org/2000/svg">
<rect x="0.333984" width="24" height="24" rx="12" fill="white"/>
<path d="M13.3918 11.9991L16.6178 8.78061C16.7591 8.63934 16.8384 8.44773 16.8384 8.24794C16.8384 8.04815 16.7591 7.85654 16.6178 7.71527C16.4765 7.574 16.2849 7.49463 16.0851 7.49463C15.8853 7.49463 15.6937 7.574 15.5525 7.71527L12.3339 10.9413L9.11539 7.71527C8.97411 7.574 8.78251 7.49463 8.58272 7.49463C8.38293 7.49463 8.19132 7.574 8.05005 7.71527C7.90877 7.85654 7.82941 8.04815 7.82941 8.24794C7.82941 8.44773 7.90877 8.63934 8.05005 8.78061L11.2761 11.9991L8.05005 15.2177C7.97973 15.2874 7.92391 15.3704 7.88582 15.4618C7.84774 15.5533 7.82812 15.6513 7.82812 15.7504C7.82812 15.8494 7.84774 15.9475 7.88582 16.0389C7.92391 16.1303 7.97973 16.2133 8.05005 16.283C8.11979 16.3533 8.20277 16.4092 8.29419 16.4472C8.38561 16.4853 8.48368 16.5049 8.58272 16.5049C8.68176 16.5049 8.77982 16.4853 8.87124 16.4472C8.96267 16.4092 9.04564 16.3533 9.11539 16.283L12.3339 13.057L15.5525 16.283C15.6222 16.3533 15.7052 16.4092 15.7966 16.4472C15.888 16.4853 15.9861 16.5049 16.0851 16.5049C16.1842 16.5049 16.2822 16.4853 16.3737 16.4472C16.4651 16.4092 16.5481 16.3533 16.6178 16.283C16.6881 16.2133 16.7439 16.1303 16.782 16.0389C16.8201 15.9475 16.8397 15.8494 16.8397 15.7504C16.8397 15.6513 16.8201 15.5533 16.782 15.4618C16.7439 15.3704 16.6881 15.2874 16.6178 15.2177L13.3918 11.9991Z" fill="#834BFF"/>
</svg>
