<svg width="24" height="24" viewBox="0 0 24 24" fill="none" xmlns="http://www.w3.org/2000/svg">
<rect width="24" height="24" rx="12" fill="#FFDEDE"/>
<path d="M13.0578 11.9991L16.2838 8.78061C16.4251 8.63934 16.5045 8.44773 16.5045 8.24794C16.5045 8.04815 16.4251 7.85654 16.2838 7.71527C16.1425 7.574 15.9509 7.49463 15.7511 7.49463C15.5514 7.49463 15.3597 7.574 15.2185 7.71527L11.9999 10.9413L8.7814 7.71527C8.64013 7.574 8.44852 7.49463 8.24873 7.49463C8.04894 7.49463 7.85733 7.574 7.71606 7.71527C7.57479 7.85654 7.49542 8.04815 7.49542 8.24794C7.49542 8.44773 7.57479 8.63934 7.71606 8.78061L10.9421 11.9991L7.71606 15.2177C7.64574 15.2874 7.58993 15.3704 7.55184 15.4618C7.51375 15.5533 7.49414 15.6513 7.49414 15.7504C7.49414 15.8494 7.51375 15.9475 7.55184 16.0389C7.58993 16.1303 7.64574 16.2133 7.71606 16.283C7.78581 16.3533 7.86878 16.4092 7.96021 16.4472C8.05163 16.4853 8.14969 16.5049 8.24873 16.5049C8.34777 16.5049 8.44583 16.4853 8.53726 16.4472C8.62868 16.4092 8.71166 16.3533 8.7814 16.283L11.9999 13.057L15.2185 16.283C15.2882 16.3533 15.3712 16.4092 15.4626 16.4472C15.554 16.4853 15.6521 16.5049 15.7511 16.5049C15.8502 16.5049 15.9482 16.4853 16.0397 16.4472C16.1311 16.4092 16.2141 16.3533 16.2838 16.283C16.3541 16.2133 16.41 16.1303 16.448 16.0389C16.4861 15.9475 16.5057 15.8494 16.5057 15.7504C16.5057 15.6513 16.4861 15.5533 16.448 15.4618C16.41 15.3704 16.3541 15.2874 16.2838 15.2177L13.0578 11.9991Z" fill="#FF4B4B"/>
</svg>
